<svg xmlns="http://www.w3.org/2000/svg" xmlns:xlink="http://www.w3.org/1999/xlink" width="163" height="171" viewBox="0 0 163 171">
  <defs>
    <clipPath id="clip-path">
      <rect width="163" height="171" fill="none"/>
    </clipPath>
  </defs>
  <g id="Grille_de_répétition_2" data-name="Grille de répétition 2" opacity="0.42" clip-path="url(#clip-path)">
    <g transform="translate(982 -91)">
      <circle id="Ellipse_4" data-name="Ellipse 4" cx="4" cy="4" r="4" transform="translate(-982 91)" fill="#04014e"/>
    </g>
    <g transform="translate(999 -91)">
      <circle id="Ellipse_4-2" data-name="Ellipse 4" cx="4" cy="4" r="4" transform="translate(-982 91)" fill="#04014e"/>
    </g>
    <g transform="translate(1016 -91)">
      <circle id="Ellipse_4-3" data-name="Ellipse 4" cx="4" cy="4" r="4" transform="translate(-982 91)" fill="#04014e"/>
    </g>
    <g transform="translate(1033 -91)">
      <circle id="Ellipse_4-4" data-name="Ellipse 4" cx="4" cy="4" r="4" transform="translate(-982 91)" fill="#04014e"/>
    </g>
    <g transform="translate(1050 -91)">
      <circle id="Ellipse_4-5" data-name="Ellipse 4" cx="4" cy="4" r="4" transform="translate(-982 91)" fill="#04014e"/>
    </g>
    <g transform="translate(1067 -91)">
      <circle id="Ellipse_4-6" data-name="Ellipse 4" cx="4" cy="4" r="4" transform="translate(-982 91)" fill="#04014e"/>
    </g>
    <g transform="translate(1084 -91)">
      <circle id="Ellipse_4-7" data-name="Ellipse 4" cx="4" cy="4" r="4" transform="translate(-982 91)" fill="#04014e"/>
    </g>
    <g transform="translate(1101 -91)">
      <circle id="Ellipse_4-8" data-name="Ellipse 4" cx="4" cy="4" r="4" transform="translate(-982 91)" fill="#04014e"/>
    </g>
    <g transform="translate(1118 -91)">
      <circle id="Ellipse_4-9" data-name="Ellipse 4" cx="4" cy="4" r="4" transform="translate(-982 91)" fill="#04014e"/>
    </g>
    <g transform="translate(1135 -91)">
      <circle id="Ellipse_4-10" data-name="Ellipse 4" cx="4" cy="4" r="4" transform="translate(-982 91)" fill="#04014e"/>
    </g>
    <g transform="translate(982 -75)">
      <circle id="Ellipse_4-11" data-name="Ellipse 4" cx="4" cy="4" r="4" transform="translate(-982 91)" fill="#04014e"/>
    </g>
    <g transform="translate(999 -75)">
      <circle id="Ellipse_4-12" data-name="Ellipse 4" cx="4" cy="4" r="4" transform="translate(-982 91)" fill="#04014e"/>
    </g>
    <g transform="translate(1016 -75)">
      <circle id="Ellipse_4-13" data-name="Ellipse 4" cx="4" cy="4" r="4" transform="translate(-982 91)" fill="#04014e"/>
    </g>
    <g transform="translate(1033 -75)">
      <circle id="Ellipse_4-14" data-name="Ellipse 4" cx="4" cy="4" r="4" transform="translate(-982 91)" fill="#04014e"/>
    </g>
    <g transform="translate(1050 -75)">
      <circle id="Ellipse_4-15" data-name="Ellipse 4" cx="4" cy="4" r="4" transform="translate(-982 91)" fill="#04014e"/>
    </g>
    <g transform="translate(1067 -75)">
      <circle id="Ellipse_4-16" data-name="Ellipse 4" cx="4" cy="4" r="4" transform="translate(-982 91)" fill="#04014e"/>
    </g>
    <g transform="translate(1084 -75)">
      <circle id="Ellipse_4-17" data-name="Ellipse 4" cx="4" cy="4" r="4" transform="translate(-982 91)" fill="#04014e"/>
    </g>
    <g transform="translate(1101 -75)">
      <circle id="Ellipse_4-18" data-name="Ellipse 4" cx="4" cy="4" r="4" transform="translate(-982 91)" fill="#04014e"/>
    </g>
    <g transform="translate(1118 -75)">
      <circle id="Ellipse_4-19" data-name="Ellipse 4" cx="4" cy="4" r="4" transform="translate(-982 91)" fill="#04014e"/>
    </g>
    <g transform="translate(1135 -75)">
      <circle id="Ellipse_4-20" data-name="Ellipse 4" cx="4" cy="4" r="4" transform="translate(-982 91)" fill="#04014e"/>
    </g>
    <g transform="translate(982 -59)">
      <circle id="Ellipse_4-21" data-name="Ellipse 4" cx="4" cy="4" r="4" transform="translate(-982 91)" fill="#04014e"/>
    </g>
    <g transform="translate(999 -59)">
      <circle id="Ellipse_4-22" data-name="Ellipse 4" cx="4" cy="4" r="4" transform="translate(-982 91)" fill="#04014e"/>
    </g>
    <g transform="translate(1016 -59)">
      <circle id="Ellipse_4-23" data-name="Ellipse 4" cx="4" cy="4" r="4" transform="translate(-982 91)" fill="#04014e"/>
    </g>
    <g transform="translate(1033 -59)">
      <circle id="Ellipse_4-24" data-name="Ellipse 4" cx="4" cy="4" r="4" transform="translate(-982 91)" fill="#04014e"/>
    </g>
    <g transform="translate(1050 -59)">
      <circle id="Ellipse_4-25" data-name="Ellipse 4" cx="4" cy="4" r="4" transform="translate(-982 91)" fill="#04014e"/>
    </g>
    <g transform="translate(1067 -59)">
      <circle id="Ellipse_4-26" data-name="Ellipse 4" cx="4" cy="4" r="4" transform="translate(-982 91)" fill="#04014e"/>
    </g>
    <g transform="translate(1084 -59)">
      <circle id="Ellipse_4-27" data-name="Ellipse 4" cx="4" cy="4" r="4" transform="translate(-982 91)" fill="#04014e"/>
    </g>
    <g transform="translate(1101 -59)">
      <circle id="Ellipse_4-28" data-name="Ellipse 4" cx="4" cy="4" r="4" transform="translate(-982 91)" fill="#04014e"/>
    </g>
    <g transform="translate(1118 -59)">
      <circle id="Ellipse_4-29" data-name="Ellipse 4" cx="4" cy="4" r="4" transform="translate(-982 91)" fill="#04014e"/>
    </g>
    <g transform="translate(1135 -59)">
      <circle id="Ellipse_4-30" data-name="Ellipse 4" cx="4" cy="4" r="4" transform="translate(-982 91)" fill="#04014e"/>
    </g>
    <g transform="translate(982 -43)">
      <circle id="Ellipse_4-31" data-name="Ellipse 4" cx="4" cy="4" r="4" transform="translate(-982 91)" fill="#04014e"/>
    </g>
    <g transform="translate(999 -43)">
      <circle id="Ellipse_4-32" data-name="Ellipse 4" cx="4" cy="4" r="4" transform="translate(-982 91)" fill="#04014e"/>
    </g>
    <g transform="translate(1016 -43)">
      <circle id="Ellipse_4-33" data-name="Ellipse 4" cx="4" cy="4" r="4" transform="translate(-982 91)" fill="#04014e"/>
    </g>
    <g transform="translate(1033 -43)">
      <circle id="Ellipse_4-34" data-name="Ellipse 4" cx="4" cy="4" r="4" transform="translate(-982 91)" fill="#04014e"/>
    </g>
    <g transform="translate(1050 -43)">
      <circle id="Ellipse_4-35" data-name="Ellipse 4" cx="4" cy="4" r="4" transform="translate(-982 91)" fill="#04014e"/>
    </g>
    <g transform="translate(1067 -43)">
      <circle id="Ellipse_4-36" data-name="Ellipse 4" cx="4" cy="4" r="4" transform="translate(-982 91)" fill="#04014e"/>
    </g>
    <g transform="translate(1084 -43)">
      <circle id="Ellipse_4-37" data-name="Ellipse 4" cx="4" cy="4" r="4" transform="translate(-982 91)" fill="#04014e"/>
    </g>
    <g transform="translate(1101 -43)">
      <circle id="Ellipse_4-38" data-name="Ellipse 4" cx="4" cy="4" r="4" transform="translate(-982 91)" fill="#04014e"/>
    </g>
    <g transform="translate(1118 -43)">
      <circle id="Ellipse_4-39" data-name="Ellipse 4" cx="4" cy="4" r="4" transform="translate(-982 91)" fill="#04014e"/>
    </g>
    <g transform="translate(1135 -43)">
      <circle id="Ellipse_4-40" data-name="Ellipse 4" cx="4" cy="4" r="4" transform="translate(-982 91)" fill="#04014e"/>
    </g>
    <g transform="translate(982 -27)">
      <circle id="Ellipse_4-41" data-name="Ellipse 4" cx="4" cy="4" r="4" transform="translate(-982 91)" fill="#04014e"/>
    </g>
    <g transform="translate(999 -27)">
      <circle id="Ellipse_4-42" data-name="Ellipse 4" cx="4" cy="4" r="4" transform="translate(-982 91)" fill="#04014e"/>
    </g>
    <g transform="translate(1016 -27)">
      <circle id="Ellipse_4-43" data-name="Ellipse 4" cx="4" cy="4" r="4" transform="translate(-982 91)" fill="#04014e"/>
    </g>
    <g transform="translate(1033 -27)">
      <circle id="Ellipse_4-44" data-name="Ellipse 4" cx="4" cy="4" r="4" transform="translate(-982 91)" fill="#04014e"/>
    </g>
    <g transform="translate(1050 -27)">
      <circle id="Ellipse_4-45" data-name="Ellipse 4" cx="4" cy="4" r="4" transform="translate(-982 91)" fill="#04014e"/>
    </g>
    <g transform="translate(1067 -27)">
      <circle id="Ellipse_4-46" data-name="Ellipse 4" cx="4" cy="4" r="4" transform="translate(-982 91)" fill="#04014e"/>
    </g>
    <g transform="translate(1084 -27)">
      <circle id="Ellipse_4-47" data-name="Ellipse 4" cx="4" cy="4" r="4" transform="translate(-982 91)" fill="#04014e"/>
    </g>
    <g transform="translate(1101 -27)">
      <circle id="Ellipse_4-48" data-name="Ellipse 4" cx="4" cy="4" r="4" transform="translate(-982 91)" fill="#04014e"/>
    </g>
    <g transform="translate(1118 -27)">
      <circle id="Ellipse_4-49" data-name="Ellipse 4" cx="4" cy="4" r="4" transform="translate(-982 91)" fill="#04014e"/>
    </g>
    <g transform="translate(1135 -27)">
      <circle id="Ellipse_4-50" data-name="Ellipse 4" cx="4" cy="4" r="4" transform="translate(-982 91)" fill="#04014e"/>
    </g>
    <g transform="translate(982 -11)">
      <circle id="Ellipse_4-51" data-name="Ellipse 4" cx="4" cy="4" r="4" transform="translate(-982 91)" fill="#04014e"/>
    </g>
    <g transform="translate(999 -11)">
      <circle id="Ellipse_4-52" data-name="Ellipse 4" cx="4" cy="4" r="4" transform="translate(-982 91)" fill="#04014e"/>
    </g>
    <g transform="translate(1016 -11)">
      <circle id="Ellipse_4-53" data-name="Ellipse 4" cx="4" cy="4" r="4" transform="translate(-982 91)" fill="#04014e"/>
    </g>
    <g transform="translate(1033 -11)">
      <circle id="Ellipse_4-54" data-name="Ellipse 4" cx="4" cy="4" r="4" transform="translate(-982 91)" fill="#04014e"/>
    </g>
    <g transform="translate(1050 -11)">
      <circle id="Ellipse_4-55" data-name="Ellipse 4" cx="4" cy="4" r="4" transform="translate(-982 91)" fill="#04014e"/>
    </g>
    <g transform="translate(1067 -11)">
      <circle id="Ellipse_4-56" data-name="Ellipse 4" cx="4" cy="4" r="4" transform="translate(-982 91)" fill="#04014e"/>
    </g>
    <g transform="translate(1084 -11)">
      <circle id="Ellipse_4-57" data-name="Ellipse 4" cx="4" cy="4" r="4" transform="translate(-982 91)" fill="#04014e"/>
    </g>
    <g transform="translate(1101 -11)">
      <circle id="Ellipse_4-58" data-name="Ellipse 4" cx="4" cy="4" r="4" transform="translate(-982 91)" fill="#04014e"/>
    </g>
    <g transform="translate(1118 -11)">
      <circle id="Ellipse_4-59" data-name="Ellipse 4" cx="4" cy="4" r="4" transform="translate(-982 91)" fill="#04014e"/>
    </g>
    <g transform="translate(1135 -11)">
      <circle id="Ellipse_4-60" data-name="Ellipse 4" cx="4" cy="4" r="4" transform="translate(-982 91)" fill="#04014e"/>
    </g>
    <g transform="translate(982 5)">
      <circle id="Ellipse_4-61" data-name="Ellipse 4" cx="4" cy="4" r="4" transform="translate(-982 91)" fill="#04014e"/>
    </g>
    <g transform="translate(999 5)">
      <circle id="Ellipse_4-62" data-name="Ellipse 4" cx="4" cy="4" r="4" transform="translate(-982 91)" fill="#04014e"/>
    </g>
    <g transform="translate(1016 5)">
      <circle id="Ellipse_4-63" data-name="Ellipse 4" cx="4" cy="4" r="4" transform="translate(-982 91)" fill="#04014e"/>
    </g>
    <g transform="translate(1033 5)">
      <circle id="Ellipse_4-64" data-name="Ellipse 4" cx="4" cy="4" r="4" transform="translate(-982 91)" fill="#04014e"/>
    </g>
    <g transform="translate(1050 5)">
      <circle id="Ellipse_4-65" data-name="Ellipse 4" cx="4" cy="4" r="4" transform="translate(-982 91)" fill="#04014e"/>
    </g>
    <g transform="translate(1067 5)">
      <circle id="Ellipse_4-66" data-name="Ellipse 4" cx="4" cy="4" r="4" transform="translate(-982 91)" fill="#04014e"/>
    </g>
    <g transform="translate(1084 5)">
      <circle id="Ellipse_4-67" data-name="Ellipse 4" cx="4" cy="4" r="4" transform="translate(-982 91)" fill="#04014e"/>
    </g>
    <g transform="translate(1101 5)">
      <circle id="Ellipse_4-68" data-name="Ellipse 4" cx="4" cy="4" r="4" transform="translate(-982 91)" fill="#04014e"/>
    </g>
    <g transform="translate(1118 5)">
      <circle id="Ellipse_4-69" data-name="Ellipse 4" cx="4" cy="4" r="4" transform="translate(-982 91)" fill="#04014e"/>
    </g>
    <g transform="translate(1135 5)">
      <circle id="Ellipse_4-70" data-name="Ellipse 4" cx="4" cy="4" r="4" transform="translate(-982 91)" fill="#04014e"/>
    </g>
    <g transform="translate(982 21)">
      <circle id="Ellipse_4-71" data-name="Ellipse 4" cx="4" cy="4" r="4" transform="translate(-982 91)" fill="#04014e"/>
    </g>
    <g transform="translate(999 21)">
      <circle id="Ellipse_4-72" data-name="Ellipse 4" cx="4" cy="4" r="4" transform="translate(-982 91)" fill="#04014e"/>
    </g>
    <g transform="translate(1016 21)">
      <circle id="Ellipse_4-73" data-name="Ellipse 4" cx="4" cy="4" r="4" transform="translate(-982 91)" fill="#04014e"/>
    </g>
    <g transform="translate(1033 21)">
      <circle id="Ellipse_4-74" data-name="Ellipse 4" cx="4" cy="4" r="4" transform="translate(-982 91)" fill="#04014e"/>
    </g>
    <g transform="translate(1050 21)">
      <circle id="Ellipse_4-75" data-name="Ellipse 4" cx="4" cy="4" r="4" transform="translate(-982 91)" fill="#04014e"/>
    </g>
    <g transform="translate(1067 21)">
      <circle id="Ellipse_4-76" data-name="Ellipse 4" cx="4" cy="4" r="4" transform="translate(-982 91)" fill="#04014e"/>
    </g>
    <g transform="translate(1084 21)">
      <circle id="Ellipse_4-77" data-name="Ellipse 4" cx="4" cy="4" r="4" transform="translate(-982 91)" fill="#04014e"/>
    </g>
    <g transform="translate(1101 21)">
      <circle id="Ellipse_4-78" data-name="Ellipse 4" cx="4" cy="4" r="4" transform="translate(-982 91)" fill="#04014e"/>
    </g>
    <g transform="translate(1118 21)">
      <circle id="Ellipse_4-79" data-name="Ellipse 4" cx="4" cy="4" r="4" transform="translate(-982 91)" fill="#04014e"/>
    </g>
    <g transform="translate(1135 21)">
      <circle id="Ellipse_4-80" data-name="Ellipse 4" cx="4" cy="4" r="4" transform="translate(-982 91)" fill="#04014e"/>
    </g>
    <g transform="translate(982 37)">
      <circle id="Ellipse_4-81" data-name="Ellipse 4" cx="4" cy="4" r="4" transform="translate(-982 91)" fill="#04014e"/>
    </g>
    <g transform="translate(999 37)">
      <circle id="Ellipse_4-82" data-name="Ellipse 4" cx="4" cy="4" r="4" transform="translate(-982 91)" fill="#04014e"/>
    </g>
    <g transform="translate(1016 37)">
      <circle id="Ellipse_4-83" data-name="Ellipse 4" cx="4" cy="4" r="4" transform="translate(-982 91)" fill="#04014e"/>
    </g>
    <g transform="translate(1033 37)">
      <circle id="Ellipse_4-84" data-name="Ellipse 4" cx="4" cy="4" r="4" transform="translate(-982 91)" fill="#04014e"/>
    </g>
    <g transform="translate(1050 37)">
      <circle id="Ellipse_4-85" data-name="Ellipse 4" cx="4" cy="4" r="4" transform="translate(-982 91)" fill="#04014e"/>
    </g>
    <g transform="translate(1067 37)">
      <circle id="Ellipse_4-86" data-name="Ellipse 4" cx="4" cy="4" r="4" transform="translate(-982 91)" fill="#04014e"/>
    </g>
    <g transform="translate(1084 37)">
      <circle id="Ellipse_4-87" data-name="Ellipse 4" cx="4" cy="4" r="4" transform="translate(-982 91)" fill="#04014e"/>
    </g>
    <g transform="translate(1101 37)">
      <circle id="Ellipse_4-88" data-name="Ellipse 4" cx="4" cy="4" r="4" transform="translate(-982 91)" fill="#04014e"/>
    </g>
    <g transform="translate(1118 37)">
      <circle id="Ellipse_4-89" data-name="Ellipse 4" cx="4" cy="4" r="4" transform="translate(-982 91)" fill="#04014e"/>
    </g>
    <g transform="translate(1135 37)">
      <circle id="Ellipse_4-90" data-name="Ellipse 4" cx="4" cy="4" r="4" transform="translate(-982 91)" fill="#04014e"/>
    </g>
    <g transform="translate(982 53)">
      <circle id="Ellipse_4-91" data-name="Ellipse 4" cx="4" cy="4" r="4" transform="translate(-982 91)" fill="#04014e"/>
    </g>
    <g transform="translate(999 53)">
      <circle id="Ellipse_4-92" data-name="Ellipse 4" cx="4" cy="4" r="4" transform="translate(-982 91)" fill="#04014e"/>
    </g>
    <g transform="translate(1016 53)">
      <circle id="Ellipse_4-93" data-name="Ellipse 4" cx="4" cy="4" r="4" transform="translate(-982 91)" fill="#04014e"/>
    </g>
    <g transform="translate(1033 53)">
      <circle id="Ellipse_4-94" data-name="Ellipse 4" cx="4" cy="4" r="4" transform="translate(-982 91)" fill="#04014e"/>
    </g>
    <g transform="translate(1050 53)">
      <circle id="Ellipse_4-95" data-name="Ellipse 4" cx="4" cy="4" r="4" transform="translate(-982 91)" fill="#04014e"/>
    </g>
    <g transform="translate(1067 53)">
      <circle id="Ellipse_4-96" data-name="Ellipse 4" cx="4" cy="4" r="4" transform="translate(-982 91)" fill="#04014e"/>
    </g>
    <g transform="translate(1084 53)">
      <circle id="Ellipse_4-97" data-name="Ellipse 4" cx="4" cy="4" r="4" transform="translate(-982 91)" fill="#04014e"/>
    </g>
    <g transform="translate(1101 53)">
      <circle id="Ellipse_4-98" data-name="Ellipse 4" cx="4" cy="4" r="4" transform="translate(-982 91)" fill="#04014e"/>
    </g>
    <g transform="translate(1118 53)">
      <circle id="Ellipse_4-99" data-name="Ellipse 4" cx="4" cy="4" r="4" transform="translate(-982 91)" fill="#04014e"/>
    </g>
    <g transform="translate(1135 53)">
      <circle id="Ellipse_4-100" data-name="Ellipse 4" cx="4" cy="4" r="4" transform="translate(-982 91)" fill="#04014e"/>
    </g>
    <g transform="translate(982 69)">
      <circle id="Ellipse_4-101" data-name="Ellipse 4" cx="4" cy="4" r="4" transform="translate(-982 91)" fill="#04014e"/>
    </g>
    <g transform="translate(999 69)">
      <circle id="Ellipse_4-102" data-name="Ellipse 4" cx="4" cy="4" r="4" transform="translate(-982 91)" fill="#04014e"/>
    </g>
    <g transform="translate(1016 69)">
      <circle id="Ellipse_4-103" data-name="Ellipse 4" cx="4" cy="4" r="4" transform="translate(-982 91)" fill="#04014e"/>
    </g>
    <g transform="translate(1033 69)">
      <circle id="Ellipse_4-104" data-name="Ellipse 4" cx="4" cy="4" r="4" transform="translate(-982 91)" fill="#04014e"/>
    </g>
    <g transform="translate(1050 69)">
      <circle id="Ellipse_4-105" data-name="Ellipse 4" cx="4" cy="4" r="4" transform="translate(-982 91)" fill="#04014e"/>
    </g>
    <g transform="translate(1067 69)">
      <circle id="Ellipse_4-106" data-name="Ellipse 4" cx="4" cy="4" r="4" transform="translate(-982 91)" fill="#04014e"/>
    </g>
    <g transform="translate(1084 69)">
      <circle id="Ellipse_4-107" data-name="Ellipse 4" cx="4" cy="4" r="4" transform="translate(-982 91)" fill="#04014e"/>
    </g>
    <g transform="translate(1101 69)">
      <circle id="Ellipse_4-108" data-name="Ellipse 4" cx="4" cy="4" r="4" transform="translate(-982 91)" fill="#04014e"/>
    </g>
    <g transform="translate(1118 69)">
      <circle id="Ellipse_4-109" data-name="Ellipse 4" cx="4" cy="4" r="4" transform="translate(-982 91)" fill="#04014e"/>
    </g>
    <g transform="translate(1135 69)">
      <circle id="Ellipse_4-110" data-name="Ellipse 4" cx="4" cy="4" r="4" transform="translate(-982 91)" fill="#04014e"/>
    </g>
  </g>
</svg>
